<mxfile host="app.diagrams.net" agent="Mozilla/5.0 (Windows NT 10.0; Win64; x64) AppleWebKit/537.36 (KHTML, like Gecko) Chrome/131.0.0.0 Safari/537.36" version="24.9.0">
  <diagram name="Page-1" id="pgXmS0MTsjrdCNZytwQQ">
    <mxGraphModel dx="1018" dy="532" grid="1" gridSize="10" guides="1" tooltips="1" connect="1" arrows="1" fold="1" page="1" pageScale="1" pageWidth="850" pageHeight="1100" math="0" shadow="0">
      <root>
        <mxCell id="0" />
        <mxCell id="1" parent="0" />
        <mxCell id="-1CU30dOZKvikORUAK3m-4" style="edgeStyle=orthogonalEdgeStyle;rounded=0;orthogonalLoop=1;jettySize=auto;html=1;entryX=0;entryY=0.5;entryDx=0;entryDy=0;exitX=1;exitY=0.5;exitDx=0;exitDy=0;" edge="1" parent="1" source="-1CU30dOZKvikORUAK3m-1" target="-1CU30dOZKvikORUAK3m-2">
          <mxGeometry relative="1" as="geometry">
            <Array as="points">
              <mxPoint x="180" y="285" />
            </Array>
          </mxGeometry>
        </mxCell>
        <mxCell id="-1CU30dOZKvikORUAK3m-13" style="edgeStyle=orthogonalEdgeStyle;rounded=0;orthogonalLoop=1;jettySize=auto;html=1;entryX=0;entryY=0;entryDx=0;entryDy=22.5;entryPerimeter=0;" edge="1" parent="1" source="-1CU30dOZKvikORUAK3m-1" target="-1CU30dOZKvikORUAK3m-12">
          <mxGeometry relative="1" as="geometry">
            <Array as="points">
              <mxPoint x="130" y="123" />
            </Array>
          </mxGeometry>
        </mxCell>
        <mxCell id="-1CU30dOZKvikORUAK3m-14" value="Provisioning On&amp;nbsp;&lt;div&gt;Completion of the HIRE BP&lt;/div&gt;" style="edgeLabel;html=1;align=center;verticalAlign=middle;resizable=0;points=[];" vertex="1" connectable="0" parent="-1CU30dOZKvikORUAK3m-13">
          <mxGeometry x="0.0359" relative="1" as="geometry">
            <mxPoint x="19" y="-2" as="offset" />
          </mxGeometry>
        </mxCell>
        <mxCell id="-1CU30dOZKvikORUAK3m-1" value="New HIre" style="rounded=1;whiteSpace=wrap;html=1;" vertex="1" parent="1">
          <mxGeometry x="70" y="255" width="110" height="50" as="geometry" />
        </mxCell>
        <mxCell id="-1CU30dOZKvikORUAK3m-33" style="edgeStyle=orthogonalEdgeStyle;rounded=0;orthogonalLoop=1;jettySize=auto;html=1;" edge="1" parent="1" source="-1CU30dOZKvikORUAK3m-2">
          <mxGeometry relative="1" as="geometry">
            <mxPoint x="940" y="285" as="targetPoint" />
          </mxGeometry>
        </mxCell>
        <mxCell id="-1CU30dOZKvikORUAK3m-2" value="Termination" style="rounded=1;whiteSpace=wrap;html=1;" vertex="1" parent="1">
          <mxGeometry x="650" y="255" width="120" height="60" as="geometry" />
        </mxCell>
        <mxCell id="-1CU30dOZKvikORUAK3m-3" value="HIre Effective Date 01/12/2024" style="text;html=1;align=center;verticalAlign=middle;whiteSpace=wrap;rounded=0;" vertex="1" parent="1">
          <mxGeometry x="260" y="350" width="100" height="30" as="geometry" />
        </mxCell>
        <mxCell id="-1CU30dOZKvikORUAK3m-7" style="edgeStyle=orthogonalEdgeStyle;rounded=0;orthogonalLoop=1;jettySize=auto;html=1;" edge="1" parent="1" source="-1CU30dOZKvikORUAK3m-5" target="-1CU30dOZKvikORUAK3m-6">
          <mxGeometry relative="1" as="geometry">
            <Array as="points">
              <mxPoint x="120" y="440" />
            </Array>
          </mxGeometry>
        </mxCell>
        <mxCell id="-1CU30dOZKvikORUAK3m-8" value="Email with&amp;nbsp;&lt;div&gt;Credentials&lt;/div&gt;" style="edgeLabel;html=1;align=center;verticalAlign=middle;resizable=0;points=[];" vertex="1" connectable="0" parent="-1CU30dOZKvikORUAK3m-7">
          <mxGeometry x="-0.4783" relative="1" as="geometry">
            <mxPoint as="offset" />
          </mxGeometry>
        </mxCell>
        <mxCell id="-1CU30dOZKvikORUAK3m-5" value="Hire Completed&lt;div&gt;25/11/2024&lt;/div&gt;" style="text;html=1;align=center;verticalAlign=middle;whiteSpace=wrap;rounded=0;" vertex="1" parent="1">
          <mxGeometry x="80" y="320" width="90" height="30" as="geometry" />
        </mxCell>
        <mxCell id="-1CU30dOZKvikORUAK3m-10" style="edgeStyle=orthogonalEdgeStyle;rounded=0;orthogonalLoop=1;jettySize=auto;html=1;exitX=0.87;exitY=0.65;exitDx=0;exitDy=0;exitPerimeter=0;" edge="1" parent="1" source="-1CU30dOZKvikORUAK3m-9">
          <mxGeometry relative="1" as="geometry">
            <mxPoint x="540" y="444" as="targetPoint" />
          </mxGeometry>
        </mxCell>
        <mxCell id="-1CU30dOZKvikORUAK3m-18" style="edgeStyle=orthogonalEdgeStyle;rounded=0;orthogonalLoop=1;jettySize=auto;html=1;dashed=1;" edge="1" parent="1" source="-1CU30dOZKvikORUAK3m-6">
          <mxGeometry relative="1" as="geometry">
            <mxPoint x="280" y="440" as="targetPoint" />
          </mxGeometry>
        </mxCell>
        <mxCell id="-1CU30dOZKvikORUAK3m-6" value="Pre Employee" style="verticalLabelPosition=bottom;html=1;verticalAlign=top;align=center;strokeColor=none;fillColor=#00BEF2;shape=mxgraph.azure.user;" vertex="1" parent="1">
          <mxGeometry x="160" y="420" width="40" height="40" as="geometry" />
        </mxCell>
        <mxCell id="-1CU30dOZKvikORUAK3m-9" value="Employee" style="verticalLabelPosition=bottom;html=1;verticalAlign=top;align=center;strokeColor=none;fillColor=#00BEF2;shape=mxgraph.azure.user;" vertex="1" parent="1">
          <mxGeometry x="287" y="418" width="40" height="40" as="geometry" />
        </mxCell>
        <mxCell id="-1CU30dOZKvikORUAK3m-11" value="" style="endArrow=classic;html=1;rounded=0;" edge="1" parent="1">
          <mxGeometry width="50" height="50" relative="1" as="geometry">
            <mxPoint x="310" y="380" as="sourcePoint" />
            <mxPoint x="310" y="410" as="targetPoint" />
          </mxGeometry>
        </mxCell>
        <mxCell id="-1CU30dOZKvikORUAK3m-15" style="edgeStyle=orthogonalEdgeStyle;rounded=0;orthogonalLoop=1;jettySize=auto;html=1;exitX=0;exitY=1;exitDx=0;exitDy=-15;exitPerimeter=0;" edge="1" parent="1" source="-1CU30dOZKvikORUAK3m-12">
          <mxGeometry relative="1" as="geometry">
            <mxPoint x="320" y="280" as="targetPoint" />
            <mxPoint x="410" y="112.5" as="sourcePoint" />
            <Array as="points">
              <mxPoint x="320" y="145" />
            </Array>
          </mxGeometry>
        </mxCell>
        <mxCell id="-1CU30dOZKvikORUAK3m-16" value="&lt;div&gt;On Hire Effective Date /&amp;nbsp;&lt;/div&gt;&lt;div&gt;First day of Work&lt;/div&gt;" style="edgeLabel;html=1;align=center;verticalAlign=middle;resizable=0;points=[];" vertex="1" connectable="0" parent="-1CU30dOZKvikORUAK3m-15">
          <mxGeometry x="0.1446" y="1" relative="1" as="geometry">
            <mxPoint x="-34" y="49" as="offset" />
          </mxGeometry>
        </mxCell>
        <mxCell id="-1CU30dOZKvikORUAK3m-36" value="Username&lt;div&gt;Writeback&lt;/div&gt;" style="edgeLabel;html=1;align=center;verticalAlign=middle;resizable=0;points=[];" vertex="1" connectable="0" parent="-1CU30dOZKvikORUAK3m-15">
          <mxGeometry x="-0.3777" y="-1" relative="1" as="geometry">
            <mxPoint x="10" y="6" as="offset" />
          </mxGeometry>
        </mxCell>
        <mxCell id="-1CU30dOZKvikORUAK3m-59" style="edgeStyle=orthogonalEdgeStyle;rounded=0;orthogonalLoop=1;jettySize=auto;html=1;" edge="1" parent="1" source="-1CU30dOZKvikORUAK3m-12">
          <mxGeometry relative="1" as="geometry">
            <mxPoint x="640" y="280" as="targetPoint" />
            <Array as="points">
              <mxPoint x="640" y="150" />
            </Array>
          </mxGeometry>
        </mxCell>
        <mxCell id="-1CU30dOZKvikORUAK3m-12" value="AD" style="shape=cylinder3;whiteSpace=wrap;html=1;boundedLbl=1;backgroundOutline=1;size=15;fillColor=#0050ef;fontColor=#ffffff;strokeColor=#FFFFFF;" vertex="1" parent="1">
          <mxGeometry x="420" y="100" width="75" height="60" as="geometry" />
        </mxCell>
        <mxCell id="-1CU30dOZKvikORUAK3m-19" value="Employee" style="verticalLabelPosition=bottom;html=1;verticalAlign=top;align=center;strokeColor=none;fillColor=#00BEF2;shape=mxgraph.azure.user;" vertex="1" parent="1">
          <mxGeometry x="541" y="417" width="40" height="40" as="geometry" />
        </mxCell>
        <mxCell id="-1CU30dOZKvikORUAK3m-20" value="Termination Effective Date 01/10/2025" style="text;html=1;align=center;verticalAlign=middle;whiteSpace=wrap;rounded=0;" vertex="1" parent="1">
          <mxGeometry x="610" y="347" width="100" height="30" as="geometry" />
        </mxCell>
        <mxCell id="-1CU30dOZKvikORUAK3m-34" style="edgeStyle=orthogonalEdgeStyle;rounded=0;orthogonalLoop=1;jettySize=auto;html=1;" edge="1" parent="1" source="-1CU30dOZKvikORUAK3m-22">
          <mxGeometry relative="1" as="geometry">
            <mxPoint x="770" y="320" as="targetPoint" />
          </mxGeometry>
        </mxCell>
        <mxCell id="-1CU30dOZKvikORUAK3m-35" value="Email with&amp;nbsp;&lt;div&gt;Credentials&lt;/div&gt;" style="edgeLabel;html=1;align=center;verticalAlign=middle;resizable=0;points=[];" vertex="1" connectable="0" parent="-1CU30dOZKvikORUAK3m-34">
          <mxGeometry x="0.4693" y="2" relative="1" as="geometry">
            <mxPoint as="offset" />
          </mxGeometry>
        </mxCell>
        <mxCell id="-1CU30dOZKvikORUAK3m-22" value="Terminee as Self" style="verticalLabelPosition=bottom;html=1;verticalAlign=top;align=center;strokeColor=none;fillColor=#00BEF2;shape=mxgraph.azure.user;" vertex="1" parent="1">
          <mxGeometry x="647.5" y="417" width="40" height="40" as="geometry" />
        </mxCell>
        <mxCell id="-1CU30dOZKvikORUAK3m-24" value="Termination&lt;div&gt;Completed&lt;/div&gt;&lt;div&gt;01/08/2025&lt;/div&gt;" style="text;html=1;align=center;verticalAlign=middle;whiteSpace=wrap;rounded=0;" vertex="1" parent="1">
          <mxGeometry x="660" y="210" width="100" height="30" as="geometry" />
        </mxCell>
        <mxCell id="-1CU30dOZKvikORUAK3m-29" value="Access with SSO w AD account" style="rounded=0;whiteSpace=wrap;html=1;fillColor=#ffe6cc;strokeColor=#d79b00;" vertex="1" parent="1">
          <mxGeometry x="327.5" y="291" width="320" height="22" as="geometry" />
        </mxCell>
        <mxCell id="-1CU30dOZKvikORUAK3m-37" value="Access Natively w&amp;nbsp;&lt;div&gt;Personal Email&lt;/div&gt;" style="rounded=0;whiteSpace=wrap;html=1;fillColor=#FFFFCC;strokeColor=#d79b00;" vertex="1" parent="1">
          <mxGeometry x="181" y="289" width="145.5" height="25" as="geometry" />
        </mxCell>
        <mxCell id="-1CU30dOZKvikORUAK3m-38" value="Access Natively w&amp;nbsp;&lt;div&gt;Personal Email&lt;/div&gt;" style="rounded=0;whiteSpace=wrap;html=1;fillColor=#FFFFCC;strokeColor=#d79b00;" vertex="1" parent="1">
          <mxGeometry x="770" y="290" width="170" height="25" as="geometry" />
        </mxCell>
        <mxCell id="-1CU30dOZKvikORUAK3m-39" value="+ 45 Days" style="text;html=1;align=center;verticalAlign=middle;whiteSpace=wrap;rounded=0;fillColor=#E6E6E6;" vertex="1" parent="1">
          <mxGeometry x="772" y="260" width="168" height="20" as="geometry" />
        </mxCell>
        <mxCell id="-1CU30dOZKvikORUAK3m-45" value="No Access" style="sketch=0;aspect=fixed;pointerEvents=1;shadow=0;dashed=0;html=1;strokeColor=none;labelPosition=center;verticalLabelPosition=bottom;verticalAlign=top;align=center;shape=mxgraph.mscae.enterprise.not_allowed;fillColor=#EA1C24;" vertex="1" parent="1">
          <mxGeometry x="957" y="270" width="30" height="30" as="geometry" />
        </mxCell>
        <mxCell id="-1CU30dOZKvikORUAK3m-46" value="" style="endArrow=none;html=1;rounded=0;strokeWidth=6;strokeColor=#FF6666;" edge="1" parent="1">
          <mxGeometry width="50" height="50" relative="1" as="geometry">
            <mxPoint x="940" y="330" as="sourcePoint" />
            <mxPoint x="940" y="240" as="targetPoint" />
          </mxGeometry>
        </mxCell>
        <mxCell id="-1CU30dOZKvikORUAK3m-52" style="edgeStyle=orthogonalEdgeStyle;rounded=0;orthogonalLoop=1;jettySize=auto;html=1;dashed=1;entryX=0.14;entryY=0.65;entryDx=0;entryDy=0;entryPerimeter=0;exitX=0.87;exitY=0.65;exitDx=0;exitDy=0;exitPerimeter=0;" edge="1" parent="1" source="-1CU30dOZKvikORUAK3m-19" target="-1CU30dOZKvikORUAK3m-22">
          <mxGeometry relative="1" as="geometry">
            <mxPoint x="290" y="450" as="targetPoint" />
            <mxPoint x="500" y="443" as="sourcePoint" />
          </mxGeometry>
        </mxCell>
        <mxCell id="-1CU30dOZKvikORUAK3m-54" value="" style="endArrow=classic;html=1;rounded=0;" edge="1" parent="1">
          <mxGeometry width="50" height="50" relative="1" as="geometry">
            <mxPoint x="669" y="380" as="sourcePoint" />
            <mxPoint x="669" y="409" as="targetPoint" />
          </mxGeometry>
        </mxCell>
        <mxCell id="-1CU30dOZKvikORUAK3m-55" value="SSO Activation" style="verticalLabelPosition=bottom;verticalAlign=top;html=1;shape=mxgraph.basic.star;fillColor=#FF8000;strokeColor=#d79b00;" vertex="1" parent="1">
          <mxGeometry x="323" y="300" width="20" height="20" as="geometry" />
        </mxCell>
        <mxCell id="-1CU30dOZKvikORUAK3m-56" style="edgeStyle=orthogonalEdgeStyle;rounded=0;orthogonalLoop=1;jettySize=auto;html=1;entryX=1;entryY=0;entryDx=0;entryDy=22.5;entryPerimeter=0;" edge="1" parent="1" target="-1CU30dOZKvikORUAK3m-12">
          <mxGeometry relative="1" as="geometry">
            <mxPoint x="700" y="200" as="sourcePoint" />
            <Array as="points">
              <mxPoint x="700" y="123" />
            </Array>
          </mxGeometry>
        </mxCell>
        <mxCell id="-1CU30dOZKvikORUAK3m-57" value="Deprovisioning On&lt;div&gt;Completion of TERM BP&lt;/div&gt;" style="edgeLabel;html=1;align=center;verticalAlign=middle;resizable=0;points=[];" vertex="1" connectable="0" parent="-1CU30dOZKvikORUAK3m-56">
          <mxGeometry x="0.1919" relative="1" as="geometry">
            <mxPoint as="offset" />
          </mxGeometry>
        </mxCell>
        <mxCell id="-1CU30dOZKvikORUAK3m-58" value="Access Blocked&lt;div&gt;15/11/2025&lt;/div&gt;" style="text;html=1;align=center;verticalAlign=middle;whiteSpace=wrap;rounded=0;" vertex="1" parent="1">
          <mxGeometry x="940" y="225" width="100" height="30" as="geometry" />
        </mxCell>
        <mxCell id="-1CU30dOZKvikORUAK3m-60" value="SSO Deactivation" style="verticalLabelPosition=bottom;verticalAlign=top;html=1;shape=mxgraph.basic.star;fillColor=#FF8000;strokeColor=none;" vertex="1" parent="1">
          <mxGeometry x="630" y="295" width="20" height="20" as="geometry" />
        </mxCell>
      </root>
    </mxGraphModel>
  </diagram>
</mxfile>
